<svg xmlns="http://www.w3.org/2000/svg" width="158" height="32" viewBox="0 0 158 32">
    <g fill="none" fill-rule="evenodd">
        <path stroke="#ED3232" stroke-linecap="round" stroke-width="2.28" d="M28.935 1.099l9.523 9.523"/>
        <path fill="#ED3232" fill-rule="nonzero" d="M1.465 2.198H28.57a1.099 1.099 0 0 0 0-2.198H1.465a1.099 1.099 0 0 0 0 2.198zM1.465 22.708H28.57a1.099 1.099 0 1 0 0-2.197H1.465a1.099 1.099 0 1 0 0 2.197z"/>
        <path fill="#ED3232" fill-rule="nonzero" d="M2.198 21.976V1.466a1.099 1.099 0 0 0-2.198 0v20.51a1.099 1.099 0 0 0 2.198 0zM30.034 21.243v-7.017a1.099 1.099 0 1 0-2.198 0v7.017a1.099 1.099 0 1 0 2.198 0zM10.988 11.72h27.104a1.099 1.099 0 1 0 0-2.197H10.988a1.099 1.099 0 1 0 0 2.197zM10.988 31.499h27.104a1.099 1.099 0 0 0 0-2.198H10.988a1.099 1.099 0 0 0 0 2.198z"/>
        <path fill="#ED3232" fill-rule="nonzero" d="M11.72 18.006v-7.018a1.099 1.099 0 1 0-2.197 0v7.018a1.099 1.099 0 1 0 2.197 0zM39.557 30.034V10.988a1.099 1.099 0 0 0-2.198 0v19.046a1.099 1.099 0 1 0 2.198 0z"/>
        <path stroke="#ED3232" stroke-linecap="round" stroke-width="2.28" d="M1.099 22.342l9.523 8.058"/>
        <path fill="#ED3232" fill-rule="nonzero" d="M1.099 2.256a1.099 1.099 0 1 0 0-2.197 1.099 1.099 0 0 0 0 2.197zM28.847 22.708a1.099 1.099 0 1 0 0-2.197 1.099 1.099 0 0 0 0 2.197z"/>
        <path fill="#ED3232" fill-rule="nonzero" d="M28.891 22.643a1.099 1.099 0 1 0 0-2.198 1.099 1.099 0 0 0 0 2.198z"/>
        <path fill="#ED3232" fill-rule="nonzero" d="M28.935 22.664a1.099 1.099 0 1 0 0-2.197 1.099 1.099 0 0 0 0 2.197zM10.666 11.72a1.099 1.099 0 1 0 0-2.197 1.099 1.099 0 0 0 0 2.197z"/>
        <path fill="#ED3232" fill-rule="nonzero" d="M10.644 11.882a1.099 1.099 0 1 0 0-2.198 1.099 1.099 0 0 0 0 2.198z"/>
        <path fill="#ED3232" fill-rule="nonzero" d="M10.644 11.764a1.099 1.099 0 1 0 0-2.197 1.099 1.099 0 0 0 0 2.197z"/>
        <path fill="#ED3232" fill-rule="nonzero" d="M10.644 11.764a1.099 1.099 0 1 0 0-2.197 1.099 1.099 0 0 0 0 2.197z"/>
        <path fill="#ED3232" fill-rule="nonzero" d="M10.644 11.764a1.099 1.099 0 1 0 0-2.197 1.099 1.099 0 0 0 0 2.197z"/>
        <path fill="#ED3232" fill-rule="nonzero" d="M10.644 11.764a1.099 1.099 0 1 0 0-2.197 1.099 1.099 0 0 0 0 2.197zM38.429 31.499a1.099 1.099 0 1 0 0-2.198 1.099 1.099 0 0 0 0 2.198z"/>
        <path fill="#ED3232" fill-rule="nonzero" d="M38.487 31.41a1.099 1.099 0 1 0 0-2.197 1.099 1.099 0 0 0 0 2.198zM1.187 2.198a1.099 1.099 0 1 0 0-2.198 1.099 1.099 0 0 0 0 2.198z"/>
        <path fill="#222" d="M50.04 22.675c-.14-.218-.21-.43-.21-.632 0-.313.164-.579.492-.797a.917.917 0 0 1 .539-.165c.281 0 .54.118.774.352.468.531.972.93 1.512 1.196.539.265 1.183.398 1.933.398.594-.016 1.118-.152 1.57-.41.454-.258.68-.676.68-1.254 0-.532-.23-.938-.69-1.22-.462-.28-1.138-.538-2.028-.773-.876-.234-1.602-.48-2.18-.738a3.906 3.906 0 0 1-1.465-1.125c-.399-.493-.598-1.137-.598-1.934 0-.703.199-1.32.598-1.852.398-.531.93-.945 1.594-1.242a5.252 5.252 0 0 1 2.168-.446c.75 0 1.496.14 2.238.422a4.205 4.205 0 0 1 1.817 1.29c.188.218.281.445.281.68 0 .25-.125.491-.375.726a.843.843 0 0 1-.586.21.878.878 0 0 1-.68-.28 3.298 3.298 0 0 0-1.207-.868 3.995 3.995 0 0 0-1.582-.304c-.594 0-1.098.12-1.512.363-.414.242-.621.652-.621 1.23.016.547.254.954.715 1.22.46.265 1.168.523 2.121.773.829.219 1.516.453 2.063.703a3.6 3.6 0 0 1 1.383 1.114c.375.492.563 1.137.563 1.934 0 .734-.211 1.37-.633 1.91a4.08 4.08 0 0 1-1.653 1.242c-.68.29-1.402.434-2.168.434-.985 0-1.895-.172-2.731-.516a5.093 5.093 0 0 1-2.121-1.64zm15.214-8.18v6.985c0 .781.351 1.172 1.055 1.172.109 0 .257-.027.445-.082.188-.055.336-.082.445-.082.204 0 .375.086.516.258.14.172.211.39.211.656 0 .328-.187.61-.563.844a2.339 2.339 0 0 1-1.265.352c-.516 0-.989-.055-1.419-.164-.43-.11-.812-.387-1.148-.833-.336-.445-.504-1.12-.504-2.027v-7.08h-1.36a1.001 1.001 0 0 1-1.031-1.03c0-.298.098-.54.293-.728.195-.187.441-.28.738-.28h1.36v-1.97c0-.312.105-.578.316-.797.211-.219.48-.328.81-.328.312 0 .573.11.784.328.211.219.317.485.317.797v1.97h1.945a1.001 1.001 0 0 1 1.032 1.03c0 .297-.098.54-.293.727a1.023 1.023 0 0 1-.739.282h-1.945zm17.088 3.961c0 1.219-.273 2.313-.82 3.282a5.96 5.96 0 0 1-2.239 2.274c-.945.547-1.988.82-3.13.82-1.14 0-2.183-.273-3.129-.82a5.96 5.96 0 0 1-2.238-2.274c-.547-.97-.82-2.063-.82-3.282 0-1.219.273-2.32.82-3.305a5.915 5.915 0 0 1 2.238-2.297c.946-.547 1.989-.82 3.13-.82 1.14 0 2.184.273 3.13.82a5.915 5.915 0 0 1 2.238 2.297c.547.984.82 2.086.82 3.305zm-2.227 0c0-.844-.175-1.598-.527-2.262a3.912 3.912 0 0 0-1.43-1.547 3.772 3.772 0 0 0-2.004-.551c-.735 0-1.403.184-2.004.55a3.912 3.912 0 0 0-1.43 1.548c-.352.664-.528 1.418-.528 2.262 0 .828.176 1.57.528 2.227a3.932 3.932 0 0 0 1.43 1.535c.601.368 1.27.551 2.004.551s1.402-.183 2.004-.55a3.932 3.932 0 0 0 1.43-1.536c.352-.656.527-1.399.527-2.227zm10.15-6.423c1.235 0 2.262.196 3.083.586.82.39 1.23.891 1.23 1.5 0 .266-.086.504-.257.715a.81.81 0 0 1-.657.317c-.203 0-.363-.031-.48-.094a5.289 5.289 0 0 1-.48-.305 2.522 2.522 0 0 0-.446-.328c-.188-.094-.453-.172-.797-.234a5.282 5.282 0 0 0-.938-.094c-.812 0-1.531.188-2.156.563a3.833 3.833 0 0 0-1.454 1.558c-.344.665-.515 1.403-.515 2.216 0 .828.168 1.57.504 2.227a3.822 3.822 0 0 0 1.418 1.547c.61.375 1.305.562 2.086.562.813 0 1.469-.125 1.969-.375.11-.062.258-.164.445-.305.157-.125.293-.218.41-.28a.913.913 0 0 1 .434-.095c.313 0 .559.098.739.293.18.196.27.45.27.762 0 .328-.208.653-.622.973-.414.32-.969.582-1.664.785a7.95 7.95 0 0 1-2.239.305c-1.188 0-2.235-.277-3.141-.832a5.575 5.575 0 0 1-2.098-2.297c-.492-.977-.738-2.067-.738-3.27 0-1.204.257-2.294.773-3.27a5.766 5.766 0 0 1 2.157-2.298c.922-.554 1.977-.832 3.164-.832zm16.737 10.619c.235.25.352.524.352.82a1 1 0 0 1-.364.786c-.242.21-.496.316-.761.316-.344 0-.618-.125-.82-.375l-4.619-4.9-1.406 1.267v2.906c0 .313-.106.579-.317.797a1.047 1.047 0 0 1-.785.329 1.106 1.106 0 0 1-1.125-1.125V8.375c0-.312.105-.578.316-.797.211-.218.48-.328.81-.328.312 0 .573.11.784.328.211.22.317.485.317.797v9.517l5.743-5.274c.266-.234.539-.351.82-.351.266 0 .508.113.727.34.219.226.328.464.328.714 0 .313-.148.594-.445.844l-4.056 3.61 4.501 4.876zm12.846-10.502c.328 0 .598.106.809.317.21.21.316.488.316.832v10.173c0 .313-.106.579-.316.797-.211.22-.481.329-.81.329-.327 0-.593-.106-.796-.317-.203-.21-.305-.48-.305-.809v-.609c-.406.547-.961 1.012-1.664 1.395a4.68 4.68 0 0 1-2.274.574 5.316 5.316 0 0 1-2.895-.82c-.867-.547-1.547-1.31-2.04-2.286-.492-.977-.738-2.074-.738-3.293 0-1.22.246-2.317.739-3.294.492-.977 1.168-1.738 2.027-2.285a5.177 5.177 0 0 1 2.837-.82c.828 0 1.598.171 2.309.515.71.344 1.277.781 1.7 1.313v-.563c0-.328.1-.602.304-.82.203-.22.469-.329.797-.329zm-4.782 10.62c.734 0 1.387-.188 1.957-.563a3.802 3.802 0 0 0 1.336-1.547c.32-.657.48-1.4.48-2.227 0-.813-.16-1.547-.48-2.204a3.888 3.888 0 0 0-1.336-1.559c-.57-.383-1.223-.574-1.957-.574-.735 0-1.387.188-1.957.563-.57.375-1.016.89-1.337 1.547-.32.656-.48 1.398-.48 2.227 0 .828.16 1.57.48 2.227.32.656.766 1.172 1.337 1.547.57.375 1.222.562 1.957.562zm15.33-10.737c.407 0 .758.106 1.055.317.297.21.445.472.445.785 0 .375-.097.66-.293.856a.973.973 0 0 1-.715.293c-.14 0-.351-.047-.632-.141-.329-.11-.586-.164-.774-.164-.484 0-.957.168-1.418.504-.461.336-.836.797-1.125 1.383a4.364 4.364 0 0 0-.434 1.957v5.65c0 .312-.105.578-.316.796-.211.22-.481.329-.81.329-.327 0-.593-.106-.796-.317-.203-.21-.305-.48-.305-.809V13.44c0-.313.106-.579.317-.797.21-.22.472-.328.785-.328.328 0 .598.109.809.328.21.218.316.484.316.797v1.195a4.437 4.437 0 0 1 1.547-1.863 4.151 4.151 0 0 1 2.344-.739zm13.83 5.954c-.015.282-.132.52-.351.715a1.124 1.124 0 0 1-.774.293h-8.251c.11 1.141.543 2.055 1.301 2.743.758.687 1.684 1.031 2.778 1.031.75 0 1.36-.11 1.828-.328a4.59 4.59 0 0 0 1.242-.844c.235-.14.462-.21.68-.21.266 0 .489.093.668.28.18.188.27.407.27.657 0 .328-.156.625-.469.89-.453.454-1.055.837-1.805 1.15a5.922 5.922 0 0 1-2.297.468c-1.266 0-2.38-.266-3.34-.797a5.554 5.554 0 0 1-2.227-2.227c-.524-.953-.786-2.031-.786-3.235 0-1.312.27-2.465.81-3.457.538-.993 1.25-1.754 2.132-2.286a5.428 5.428 0 0 1 2.848-.797c1 0 1.938.258 2.813.774a5.876 5.876 0 0 1 2.11 2.133c.531.906.805 1.922.82 3.047zm-5.743-3.891c-.875 0-1.633.246-2.273.738-.641.493-1.063 1.255-1.266 2.286h6.915v-.188c-.078-.828-.45-1.508-1.114-2.039a3.524 3.524 0 0 0-2.262-.797zm18.378-1.946c.328 0 .598.106.809.317.21.21.316.488.316.832v10.173c0 .313-.105.579-.316.797-.211.22-.48.329-.809.329-.328 0-.594-.106-.797-.317-.203-.21-.305-.48-.305-.809v-.609c-.406.547-.96 1.012-1.664 1.395a4.68 4.68 0 0 1-2.274.574 5.316 5.316 0 0 1-2.895-.82c-.867-.547-1.547-1.31-2.04-2.286-.491-.977-.737-2.074-.737-3.293 0-1.22.246-2.317.738-3.294.492-.977 1.168-1.738 2.028-2.285a5.177 5.177 0 0 1 2.836-.82c.828 0 1.598.171 2.309.515.71.344 1.277.781 1.7 1.313v-.563c0-.328.1-.602.304-.82.203-.22.469-.329.797-.329zm-4.782 10.62c.735 0 1.387-.188 1.957-.563a3.802 3.802 0 0 0 1.337-1.547c.32-.657.48-1.4.48-2.227 0-.813-.16-1.547-.48-2.204a3.888 3.888 0 0 0-1.337-1.559c-.57-.383-1.222-.574-1.957-.574-.734 0-1.387.188-1.957.563-.57.375-1.016.89-1.336 1.547-.32.656-.48 1.398-.48 2.227 0 .828.16 1.57.48 2.227.32.656.765 1.172 1.336 1.547.57.375 1.223.562 1.957.562z"/>
    </g>
</svg>
